<?xml version="1.0" encoding="utf-8"?>
<!-- Generator: Adobe Illustrator 25.2.1, SVG Export Plug-In . SVG Version: 6.00 Build 0)  -->
<svg version="1.2" baseProfile="tiny" id="图层_1"
	 xmlns="http://www.w3.org/2000/svg" xmlns:xlink="http://www.w3.org/1999/xlink" x="0px" y="0px" viewBox="0 0 16 16"
	 overflow="visible" xml:space="preserve">
<path id="iconFg" fill="#F0EFF1" d="M5,14v-2h2v2H5z M9,14v-2h2v2H9z"/>
<path id="iconBg" fill="#424242" d="M10,8h2v2h-2V8z M7,10h2V8H7V10z M13,6v5H3V6H2v9h12V6H13z M7,14H5v-2h2V14z M11,14H9v-2h2V14z
	 M6,8H4v2h2V8z M10.5,4.5L9.8,3.8L8.5,5.1V1h-1v4.1L6.2,3.8L5.5,4.5L8,7C8,7,10.5,4.5,10.5,4.5z"/>
</svg>
