<?xml version="1.0" encoding="utf-8"?>
<!-- Generator: Adobe Illustrator 25.2.1, SVG Export Plug-In . SVG Version: 6.00 Build 0)  -->
<svg version="1.2" baseProfile="tiny" id="图层_1"
	 xmlns="http://www.w3.org/2000/svg" xmlns:xlink="http://www.w3.org/1999/xlink" x="0px" y="0px" viewBox="0 0 16 16"
	 overflow="visible" xml:space="preserve">
<g id="icon_x5F_bg">
	<path fill="#E6E6E6" d="M7.3,6H4c0,0-1,0-1,1v5c0,1,1,1,1,1h4c1,0,1-1,1-1V8.1L7.3,6z M8,10v2H4V7h3v1h1V10z M11.3,2H8c0,0-1,0-1,1
		v2h1V3h3v1h1v4h-2v1h2c1,0,1-1,1-1V4.1L11.3,2z"/>
</g>
</svg>
