<?xml version="1.0" encoding="UTF-8"?><svg id="_图层_1" xmlns="http://www.w3.org/2000/svg" viewBox="0 0 40 40"><path d="M40,14.09v-3.51h-3.83v-4.75c0-1.1-.9-2-2-2h-4.46V0h-3.51v3.83h-4.42V0h-3.51v3.83h-4.42V0h-3.51v3.83h-4.51c-1.1,0-2,.9-2,2v4.75H0v3.51h3.83v4.18H0v3.51h3.83v4.18H0v3.51h3.83v4.71c0,1.1.9,2,2,2h4.51v3.83h3.51v-3.83h4.42v3.83h3.51v-3.83h4.42v3.83h3.51v-3.83h4.46c1.1,0,2-.9,2-2v-4.71h3.83v-3.51h-3.83v-4.18h3.83v-3.51h-3.83v-4.18h3.83ZM12.73,24.95l-2.9-4.24c-.07-.11-.16-.28-.25-.51h-.03v4.75h-2.04v-9.7h2.04v4.58h.03c.09-.2.18-.37.27-.52l2.75-4.06h2.44l-3.43,4.63,3.72,5.07h-2.59ZM21.97,24.95h-5.68v-9.7h5.46v1.69h-3.41v2.29h3.17v1.68h-3.17v2.35h3.64v1.69ZM25.58,24.95h-2.04v-9.7h2.04v9.7ZM27.79,24.95v-9.7h2.04v8.01h3.59v1.69h-5.63ZM33,34.94c-.83,0-1.5-.67-1.5-1.5s.67-1.5,1.5-1.5,1.5.67,1.5,1.5-.67,1.5-1.5,1.5Z" style="fill:gray;"/></svg>